<svg xmlns="http://www.w3.org/2000/svg" viewBox="445 140 520 520">
 <g fill="#fefefe">
  <path d="M802.2 594.8 c-0.1 -1.9 -4.8 -9 -7.3 -10.7 -4.1 -3.1 -9.4 -3.9 -25.7 -3.9 l-15.1 0 0 -20 0 -20 70.9 0 c60.7 0 71.7 -0.2 76.9 -1.5 11.7 -3.1 21.8 -11.9 27.3 -23.6 2.8 -5.9 3.2 -8.2 4 -20.7 1.3 -21.8 1.1 -243.1 -0.2 -250.5 -3.3 -17.6 -17.4 -31.9 -34.6 -35.2 -8 -1.4 -381.4 -1.4 -389.5 0.1 -17.3 3.2 -31.1 16.7 -34.3 33.6 -0.6 3.5 -1 50.3 -1 131 0 136.6 -0.1 133.7 5.7 144.5 4.1 7.5 11.7 14.6 19.6 18.5 l6.9 3.4 73.5 0.3 73.4 0.3 -0.2 20.2 -0.3 20.2 -18.1 0.5 c-20 0.6 -21.2 0.9 -26.1 8.2 -4.5 6.7 -11.8 6.1 95.9 6.1 54 0 98.2 -0.3 98.2 -0.7z"/>
  <path d="M504.4 520 c-4 -2 -6.3 -4.2 -8.6 -7.9 l-3.1 -4.9 -0.3 -131 c-0.1 -89.5 0.1 -132.1 0.8 -134.9 1.3 -4.9 6.2 -10.6 11.4 -13.3 3.8 -1.9 7.9 -1.9 199.4 -1.9 190.2 0 195.6 0.1 199.3 1.9 4.4 2.3 7.4 5.3 10 10.3 1.8 3.5 1.9 8.7 1.9 135.6 l0 132 -2.3 4.3 c-2.8 5.2 -8.4 9.8 -13.5 11.5 -2.9 0.8 -32.5 1.1 -106.4 1.1 l-102.4 0 0.2 -42.7 0.3 -42.7 10.2 -1.8 c34.2 -6.1 70 -19.4 83.1 -31 9 -8 14 -20.9 11.7 -30 l-1.2 -4.3 -13.5 6.8 c-15.5 7.8 -31.9 14.4 -45.2 18.3 -13.4 3.9 -33.2 7.7 -39.8 7.7 l-5.7 0 0.2 -22.2 0.3 -22.2 11.8 -2.4 c42.9 -8.5 91.2 -31.8 115.4 -55.8 7.6 -7.5 10.6 -12.3 13 -20.6 1.4 -5 1.5 -6.8 0.5 -11.3 -1.1 -4.5 -3.5 -10.4 -4.7 -11.9 -0.2 -0.2 -3.1 2.1 -6.3 5.1 -23.1 21.5 -52.6 39.8 -81.1 50.3 -12.2 4.6 -33.5 10.2 -48.8 12.9 -13.6 2.5 -22 5.9 -27.1 11.2 -4.4 4.6 -8.6 12.7 -9.3 18.2 -0.6 4.4 -1.5 84.6 -1.6 135.8 l0 32.4 -71.5 0 -71.5 0 -5.4 -2.9z m183.3 -217.2 c9.1 -4.1 17.4 -15.5 17.4 -23.8 0 -7.7 -7.1 -18.4 -14.7 -22.3 -8.2 -4.2 -13.9 -4.1 -22.8 0.6 -6.9 3.5 -13.5 14.1 -13.6 21.6 0 8.7 8 19.7 17.4 23.9 5.8 2.7 10.5 2.7 16.4 0z"/>
 </g>
 <g fill="#5E35B1">
  <path d="M602.3 597.8 c-0.8 -1.4 1.2 -9.6 3.2 -12.3 4.8 -6.4 6 -6.9 25.7 -7.4 l18.1 -0.5 0.3 -17.1 0.2 -17.1 -73.4 -0.3 -73.5 -0.3 -6.9 -3.4 c-8 -3.9 -15.6 -11.1 -19.6 -18.5 -5.8 -10.7 -5.7 -7.7 -5.7 -147.6 0 -82.7 0.4 -130.6 1 -134 3.2 -16.9 17 -30.4 34.3 -33.6 8.1 -1.5 387.6 -1.5 395.6 -0.1 17.2 3.3 31.3 17.6 34.6 35.2 1.3 7.4 1.5 234.8 0.2 256.6 -0.8 12.5 -1.2 14.7 -4 20.7 -5.5 11.8 -15.7 20.6 -27.3 23.6 -5.2 1.3 -16.3 1.5 -76.9 1.5 l-70.9 0 0 16.9 0 16.9 15.1 0 c16.3 0 21.6 0.8 25.7 3.9 3.8 2.8 7.3 9.3 7.3 13.8 l0 3.8 -101.2 0 c-55.8 0 -101.5 -0.3 -101.8 -0.8z m47.6 -117.6 c0.1 -60.4 0.8 -125.2 1.5 -129.2 0.8 -5.2 5.1 -13.3 9.3 -17.6 5.1 -5.2 13.5 -8.7 27.1 -11.2 15.3 -2.7 36.6 -8.3 48.8 -12.9 29.1 -10.8 58.9 -29.5 82.2 -51.3 4.2 -4 7.6 -6.3 8.7 -6.1 4.3 0.8 9.3 16 8.2 25.2 -1.8 15.9 -11.6 27.4 -37 44.4 -26.1 17.3 -61.2 31.7 -92.6 38 l-11.8 2.4 -0.3 19.1 -0.2 19.1 2.7 0 c4 0 26.2 -4.6 36.7 -7.7 14.2 -4.1 31.1 -11.1 47.9 -19.6 16.7 -8.6 16.1 -8.5 18.2 -0.8 3.3 11.6 -1.8 27.2 -11.7 35.8 -13.1 11.6 -48.9 24.9 -83.1 31 l-10.2 1.8 -0.3 39.6 -0.2 39.6 99.4 0 c71.5 0 100.5 -0.3 103.3 -1.1 5.1 -1.6 10.7 -6.2 13.5 -11.5 l2.3 -4.3 0 -128.9 c0 -123.9 -0.1 -129 -1.9 -132.5 -2.7 -5 -5.6 -8.1 -10 -10.3 -3.7 -1.8 -9.1 -1.9 -196.3 -1.9 -188.5 0 -192.6 0 -196.4 1.9 -5.1 2.7 -10 8.4 -11.4 13.3 -0.7 2.8 -0.9 44.4 -0.8 131.8 l0.3 127.9 3.1 4.9 c2.3 3.7 4.6 5.8 8.6 7.9 l5.4 2.9 68.5 0 68.5 0 0.1 -39.6z"/>
  <path d="M668.2 305.9 c-6.1 -2.8 -12 -8.5 -14.9 -14.7 -3.1 -6.5 -3.4 -17.4 -0.5 -23.6 8.9 -19.4 34.8 -23.5 48.5 -7.5 12.5 14.5 7.2 37.9 -10.5 45.8 -6.2 2.9 -16.3 2.9 -22.5 0z"/>
 </g>
</svg>
